<svg preserveAspectRatio="none" id="visual" viewBox="0 0 900 300" width="900" height="300" xmlns="http://www.w3.org/2000/svg" xmlns:xlink="http://www.w3.org/1999/xlink" version="1.1"><path d="M0 238L50 238L50 256L100 256L100 260L150 260L150 254L200 254L200 257L250 257L250 262L300 262L300 243L350 243L350 277L400 277L400 246L450 246L450 235L500 235L500 244L550 244L550 250L600 250L600 276L650 276L650 268L700 268L700 271L750 271L750 269L800 269L800 254L850 254L850 274L900 274L900 273L900 0L900 0L850 0L850 0L800 0L800 0L750 0L750 0L700 0L700 0L650 0L650 0L600 0L600 0L550 0L550 0L500 0L500 0L450 0L450 0L400 0L400 0L350 0L350 0L300 0L300 0L250 0L250 0L200 0L200 0L150 0L150 0L100 0L100 0L50 0L50 0L0 0Z" fill="#f5730a"></path><path d="M0 205L50 205L50 195L100 195L100 201L150 201L150 228L200 228L200 205L250 205L250 223L300 223L300 227L350 227L350 212L400 212L400 200L450 200L450 221L500 221L500 229L550 229L550 206L600 206L600 201L650 201L650 218L700 218L700 231L750 231L750 206L800 206L800 230L850 230L850 191L900 191L900 233L900 0L900 0L850 0L850 0L800 0L800 0L750 0L750 0L700 0L700 0L650 0L650 0L600 0L600 0L550 0L550 0L500 0L500 0L450 0L450 0L400 0L400 0L350 0L350 0L300 0L300 0L250 0L250 0L200 0L200 0L150 0L150 0L100 0L100 0L50 0L50 0L0 0Z" fill="#f44e58"></path><path d="M0 166L50 166L50 152L100 152L100 192L150 192L150 170L200 170L200 180L250 180L250 168L300 168L300 158L350 158L350 189L400 189L400 168L450 168L450 150L500 150L500 176L550 176L550 187L600 187L600 149L650 149L650 162L700 162L700 157L750 157L750 174L800 174L800 189L850 189L850 152L900 152L900 153L900 0L900 0L850 0L850 0L800 0L800 0L750 0L750 0L700 0L700 0L650 0L650 0L600 0L600 0L550 0L550 0L500 0L500 0L450 0L450 0L400 0L400 0L350 0L350 0L300 0L300 0L250 0L250 0L200 0L200 0L150 0L150 0L100 0L100 0L50 0L50 0L0 0Z" fill="#d04986"></path><path d="M0 142L50 142L50 117L100 117L100 142L150 142L150 131L200 131L200 106L250 106L250 125L300 125L300 134L350 134L350 133L400 133L400 126L450 126L450 139L500 139L500 129L550 129L550 113L600 113L600 151L650 151L650 153L700 153L700 116L750 116L750 131L800 131L800 149L850 149L850 111L900 111L900 135L900 0L900 0L850 0L850 0L800 0L800 0L750 0L750 0L700 0L700 0L650 0L650 0L600 0L600 0L550 0L550 0L500 0L500 0L450 0L450 0L400 0L400 0L350 0L350 0L300 0L300 0L250 0L250 0L200 0L200 0L150 0L150 0L100 0L100 0L50 0L50 0L0 0Z" fill="#96559b"></path><path d="M0 76L50 76L50 92L100 92L100 101L150 101L150 78L200 78L200 99L250 99L250 63L300 63L300 77L350 77L350 91L400 91L400 71L450 71L450 83L500 83L500 100L550 100L550 79L600 79L600 81L650 81L650 84L700 84L700 61L750 61L750 62L800 62L800 96L850 96L850 110L900 110L900 62L900 0L900 0L850 0L850 0L800 0L800 0L750 0L750 0L700 0L700 0L650 0L650 0L600 0L600 0L550 0L550 0L500 0L500 0L450 0L450 0L400 0L400 0L350 0L350 0L300 0L300 0L250 0L250 0L200 0L200 0L150 0L150 0L100 0L100 0L50 0L50 0L0 0Z" fill="#585a94"></path><path d="M0 61L50 61L50 45L100 45L100 53L150 53L150 60L200 60L200 63L250 63L250 67L300 67L300 26L350 26L350 23L400 23L400 43L450 43L450 35L500 35L500 22L550 22L550 67L600 67L600 60L650 60L650 32L700 32L700 46L750 46L750 35L800 35L800 36L850 36L850 35L900 35L900 27L900 0L900 0L850 0L850 0L800 0L800 0L750 0L750 0L700 0L700 0L650 0L650 0L600 0L600 0L550 0L550 0L500 0L500 0L450 0L450 0L400 0L400 0L350 0L350 0L300 0L300 0L250 0L250 0L200 0L200 0L150 0L150 0L100 0L100 0L50 0L50 0L0 0Z" fill="#2f5576"></path></svg>
