<svg preserveAspectRatio="none" id="visual" viewBox="0 0 900 200" width="900" height="200" xmlns="http://www.w3.org/2000/svg" xmlns:xlink="http://www.w3.org/1999/xlink" version="1.1"><path d="M0 54L64 32L129 46L193 51L257 44L321 55L386 44L450 18L514 53L579 53L643 67L707 50L771 17L836 41L900 12L900 201L836 201L771 201L707 201L643 201L579 201L514 201L450 201L386 201L321 201L257 201L193 201L129 201L64 201L0 201Z" fill="#f5730a"></path><path d="M0 42L64 53L129 57L193 47L257 81L321 43L386 52L450 53L514 37L579 63L643 85L707 51L771 61L836 64L900 46L900 201L836 201L771 201L707 201L643 201L579 201L514 201L450 201L386 201L321 201L257 201L193 201L129 201L64 201L0 201Z" fill="#f7524e"></path><path d="M0 103L64 77L129 60L193 103L257 63L321 97L386 71L450 94L514 71L579 81L643 104L707 71L771 107L836 100L900 79L900 201L836 201L771 201L707 201L643 201L579 201L514 201L450 201L386 201L321 201L257 201L193 201L129 201L64 201L0 201Z" fill="#e04779"></path><path d="M0 92L64 101L129 95L193 102L257 119L321 128L386 88L450 108L514 88L579 94L643 123L707 120L771 107L836 123L900 125L900 201L836 201L771 201L707 201L643 201L579 201L514 201L450 201L386 201L321 201L257 201L193 201L129 201L64 201L0 201Z" fill="#b54f94"></path><path d="M0 118L64 109L129 144L193 125L257 136L321 144L386 149L450 139L514 136L579 138L643 118L707 137L771 121L836 133L900 109L900 201L836 201L771 201L707 201L643 201L579 201L514 201L450 201L386 201L321 201L257 201L193 201L129 201L64 201L0 201Z" fill="#81589c"></path><path d="M0 169L64 162L129 165L193 162L257 156L321 164L386 151L450 156L514 142L579 163L643 161L707 142L771 151L836 154L900 140L900 201L836 201L771 201L707 201L643 201L579 201L514 201L450 201L386 201L321 201L257 201L193 201L129 201L64 201L0 201Z" fill="#4e5a90"></path><path d="M0 160L64 172L129 183L193 175L257 179L321 160L386 190L450 176L514 186L579 191L643 181L707 161L771 182L836 159L900 185L900 201L836 201L771 201L707 201L643 201L579 201L514 201L450 201L386 201L321 201L257 201L193 201L129 201L64 201L0 201Z" fill="#2f5576"></path></svg>
