<svg id="visual" viewBox="0 0 900 200" width="900" height="200" xmlns="http://www.w3.org/2000/svg" xmlns:xlink="http://www.w3.org/1999/xlink" version="1.1"><path d="M0 19L15 27C30 35 60 51 90 52.3C120 53.7 150 40.3 180 32.7C210 25 240 23 270 25.3C300 27.7 330 34.3 360 41.7C390 49 420 57 450 58.3C480 59.7 510 54.3 540 51.2C570 48 600 47 630 43C660 39 690 32 720 32.3C750 32.7 780 40.3 810 46.2C840 52 870 56 885 58L900 60L900 201L885 201C870 201 840 201 810 201C780 201 750 201 720 201C690 201 660 201 630 201C600 201 570 201 540 201C510 201 480 201 450 201C420 201 390 201 360 201C330 201 300 201 270 201C240 201 210 201 180 201C150 201 120 201 90 201C60 201 30 201 15 201L0 201Z" fill="#f5730a"></path><path d="M0 41L15 41.5C30 42 60 43 90 50C120 57 150 70 180 77.2C210 84.3 240 85.7 270 80.2C300 74.7 330 62.3 360 55.2C390 48 420 46 450 47C480 48 510 52 540 53.8C570 55.7 600 55.3 630 53.7C660 52 690 49 720 54C750 59 780 72 810 72.2C840 72.3 870 59.7 885 53.3L900 47L900 201L885 201C870 201 840 201 810 201C780 201 750 201 720 201C690 201 660 201 630 201C600 201 570 201 540 201C510 201 480 201 450 201C420 201 390 201 360 201C330 201 300 201 270 201C240 201 210 201 180 201C150 201 120 201 90 201C60 201 30 201 15 201L0 201Z" fill="#f85647"></path><path d="M0 88L15 90C30 92 60 96 90 96C120 96 150 92 180 90.3C210 88.7 240 89.3 270 86.2C300 83 330 76 360 78.2C390 80.3 420 91.7 450 96.3C480 101 510 99 540 95.5C570 92 600 87 630 84.3C660 81.7 690 81.3 720 85.2C750 89 780 97 810 99.8C840 102.7 870 100.3 885 99.2L900 98L900 201L885 201C870 201 840 201 810 201C780 201 750 201 720 201C690 201 660 201 630 201C600 201 570 201 540 201C510 201 480 201 450 201C420 201 390 201 360 201C330 201 300 201 270 201C240 201 210 201 180 201C150 201 120 201 90 201C60 201 30 201 15 201L0 201Z" fill="#e9476e"></path><path d="M0 91L15 94C30 97 60 103 90 102.2C120 101.3 150 93.7 180 91.5C210 89.3 240 92.7 270 96.2C300 99.7 330 103.3 360 103.7C390 104 420 101 450 98C480 95 510 92 540 90.7C570 89.3 600 89.7 630 91.7C660 93.7 690 97.3 720 98.5C750 99.7 780 98.3 810 95C840 91.7 870 86.3 885 83.7L900 81L900 201L885 201C870 201 840 201 810 201C780 201 750 201 720 201C690 201 660 201 630 201C600 201 570 201 540 201C510 201 480 201 450 201C420 201 390 201 360 201C330 201 300 201 270 201C240 201 210 201 180 201C150 201 120 201 90 201C60 201 30 201 15 201L0 201Z" fill="#c94a8a"></path><path d="M0 118L15 116.2C30 114.3 60 110.7 90 111.2C120 111.7 150 116.3 180 119.7C210 123 240 125 270 123.3C300 121.7 330 116.3 360 113C390 109.7 420 108.3 450 111.5C480 114.7 510 122.3 540 126.8C570 131.3 600 132.7 630 127.8C660 123 690 112 720 107.8C750 103.7 780 106.3 810 109.3C840 112.3 870 115.7 885 117.3L900 119L900 201L885 201C870 201 840 201 810 201C780 201 750 201 720 201C690 201 660 201 630 201C600 201 570 201 540 201C510 201 480 201 450 201C420 201 390 201 360 201C330 201 300 201 270 201C240 201 210 201 180 201C150 201 120 201 90 201C60 201 30 201 15 201L0 201Z" fill="#9f539a"></path><path d="M0 153L15 150C30 147 60 141 90 136C120 131 150 127 180 127.2C210 127.3 240 131.7 270 132.2C300 132.7 330 129.3 360 127.8C390 126.3 420 126.7 450 130.8C480 135 510 143 540 142.2C570 141.3 600 131.7 630 128.5C660 125.3 690 128.7 720 131.8C750 135 780 138 810 141.8C840 145.7 870 150.3 885 152.7L900 155L900 201L885 201C870 201 840 201 810 201C780 201 750 201 720 201C690 201 660 201 630 201C600 201 570 201 540 201C510 201 480 201 450 201C420 201 390 201 360 201C330 201 300 201 270 201C240 201 210 201 180 201C150 201 120 201 90 201C60 201 30 201 15 201L0 201Z" fill="#71599a"></path><path d="M0 149L15 149.5C30 150 60 151 90 154.5C120 158 150 164 180 164.7C210 165.3 240 160.7 270 158.8C300 157 330 158 360 158.2C390 158.3 420 157.7 450 156.5C480 155.3 510 153.7 540 155C570 156.3 600 160.7 630 163C660 165.3 690 165.7 720 165C750 164.3 780 162.7 810 159C840 155.3 870 149.7 885 146.8L900 144L900 201L885 201C870 201 840 201 810 201C780 201 750 201 720 201C690 201 660 201 630 201C600 201 570 201 540 201C510 201 480 201 450 201C420 201 390 201 360 201C330 201 300 201 270 201C240 201 210 201 180 201C150 201 120 201 90 201C60 201 30 201 15 201L0 201Z" fill="#485a8d"></path><path d="M0 189L15 187C30 185 60 181 90 179.8C120 178.7 150 180.3 180 180.5C210 180.7 240 179.3 270 178.3C300 177.3 330 176.7 360 175.5C390 174.3 420 172.7 450 171.3C480 170 510 169 540 168.3C570 167.7 600 167.3 630 170.7C660 174 690 181 720 181.3C750 181.7 780 175.3 810 171.3C840 167.3 870 165.7 885 164.8L900 164L900 201L885 201C870 201 840 201 810 201C780 201 750 201 720 201C690 201 660 201 630 201C600 201 570 201 540 201C510 201 480 201 450 201C420 201 390 201 360 201C330 201 300 201 270 201C240 201 210 201 180 201C150 201 120 201 90 201C60 201 30 201 15 201L0 201Z" fill="#2f5576"></path></svg>